<svg width="24" height="26" viewBox="0 0 24 26" fill="none" xmlns="http://www.w3.org/2000/svg">
<path d="M3.67626 5.70976C16.5622 3.95163 19.7379 4.16729 21.7392 6.45771C23.7405 8.74813 23.273 16.306 20.9323 18.4085C18.5916 20.5109 8.43379 20.7108 5.21405 18.4085C1.81011 15.9746 3.78641 8.48694 3.67528 3.95062C3.74236 1.41285 1.00116 1.00128 1.00116 1.00128" stroke="white" stroke-width="2" stroke-linecap="round" stroke-linejoin="round"/>
<path d="M14.9216 11.1771H18.3175H14.9216Z" fill="#60C370"/>
<path fill-rule="evenodd" clip-rule="evenodd" d="M5.7029 23.4296C5.83478 23.4298 5.96367 23.4687 6.07321 23.5412C6.18275 23.6138 6.26802 23.7168 6.3183 23.8373C6.36859 23.9578 6.38162 24.0903 6.3557 24.2181C6.32978 24.3459 6.26608 24.4632 6.17269 24.5552C6.0793 24.6472 5.96042 24.7098 5.83104 24.735C5.70166 24.7603 5.56759 24.747 5.44583 24.6969C5.32407 24.6469 5.22006 24.5623 5.14696 24.4538C5.07386 24.3453 5.03494 24.2179 5.03514 24.0876C5.03527 24.001 5.05265 23.9154 5.08628 23.8355C5.11991 23.7556 5.16916 23.683 5.23116 23.6219C5.29317 23.5608 5.36672 23.5124 5.44766 23.4794C5.52861 23.4464 5.61534 23.4295 5.7029 23.4296Z" fill="#60C370"/>
<path fill-rule="evenodd" clip-rule="evenodd" d="M19.4889 23.4296C19.6208 23.4296 19.7498 23.4683 19.8595 23.5407C19.9691 23.6132 20.0545 23.7162 20.105 23.8366C20.1554 23.9571 20.1686 24.0896 20.1428 24.2175C20.117 24.3453 20.0534 24.4627 19.96 24.5548C19.8667 24.6469 19.7477 24.7096 19.6183 24.7349C19.4889 24.7602 19.3549 24.7471 19.2331 24.697C19.1112 24.647 19.0072 24.5624 18.934 24.4539C18.8609 24.3454 18.8219 24.2179 18.8221 24.0875C18.8224 23.913 18.8928 23.7456 19.0178 23.6223C19.1428 23.4989 19.3122 23.4296 19.4889 23.4296Z" fill="#60C370"/>
<path d="M14.9216 11.1771H18.3175M5.7029 23.4296C5.83478 23.4298 5.96367 23.4687 6.07321 23.5412C6.18275 23.6138 6.26802 23.7168 6.3183 23.8373C6.36859 23.9578 6.38162 24.0903 6.3557 24.2181C6.32978 24.3459 6.26608 24.4632 6.17269 24.5552C6.0793 24.6472 5.96042 24.7098 5.83104 24.735C5.70166 24.7603 5.56759 24.747 5.44583 24.6969C5.32407 24.6469 5.22006 24.5623 5.14696 24.4538C5.07386 24.3453 5.03494 24.2179 5.03514 24.0876C5.03527 24.001 5.05265 23.9154 5.08628 23.8355C5.11991 23.7556 5.16916 23.683 5.23116 23.6219C5.29317 23.5608 5.36672 23.5124 5.44766 23.4794C5.52861 23.4464 5.61534 23.4295 5.7029 23.4296ZM19.4889 23.4296C19.6208 23.4296 19.7498 23.4683 19.8595 23.5407C19.9691 23.6132 20.0545 23.7161 20.105 23.8366C20.1554 23.9571 20.1686 24.0896 20.1428 24.2175C20.117 24.3453 20.0534 24.4627 19.96 24.5548C19.8667 24.6469 19.7477 24.7096 19.6183 24.7349C19.4889 24.7602 19.3549 24.7471 19.2331 24.697C19.1112 24.647 19.0072 24.5624 18.934 24.4539C18.8609 24.3454 18.8219 24.2179 18.8221 24.0875C18.8224 23.913 18.8928 23.7456 19.0178 23.6223C19.1428 23.4989 19.3122 23.4296 19.4889 23.4296Z" stroke="white" stroke-width="2" stroke-linecap="round" stroke-linejoin="round"/>
</svg>
