<svg width="23" height="21" viewBox="0 0 23 21" fill="none" xmlns="http://www.w3.org/2000/svg">
<path d="M11.5001 14.0001C11.2761 14.0005 11.0591 13.9293 10.8867 13.7989L5.13673 9.42387C4.94102 9.27535 4.81795 9.06193 4.79458 8.83055C4.77122 8.59918 4.84948 8.36881 5.01214 8.19012C5.17481 8.01143 5.40856 7.89906 5.66197 7.87773C5.91538 7.85639 6.16769 7.92785 6.36339 8.07637L11.5001 11.9964L16.6367 8.21637C16.7348 8.14369 16.8475 8.08941 16.9686 8.05666C17.0897 8.0239 17.2167 8.01332 17.3422 8.02552C17.4678 8.03771 17.5895 8.07245 17.7003 8.12773C17.8111 8.183 17.9089 8.25773 17.988 8.34762C18.0757 8.43759 18.1422 8.54314 18.1832 8.65765C18.2242 8.77216 18.2389 8.89318 18.2263 9.01311C18.2137 9.13304 18.1741 9.2493 18.11 9.35461C18.0459 9.45993 17.9587 9.55202 17.8538 9.62512L12.1038 13.8514C11.9264 13.9612 11.7139 14.0136 11.5001 14.0001Z" fill="black"/>
</svg>
